<?xml version="1.0" encoding="utf-8"?>
<!-- Generator: Adobe Illustrator 23.0.2, SVG Export Plug-In . SVG Version: 6.00 Build 0)  -->
<svg version="1.1" id="Layer_1" xmlns="http://www.w3.org/2000/svg" xmlns:xlink="http://www.w3.org/1999/xlink" x="0px" y="0px"
	 viewBox="0 0 263.5 129.9" style="enable-background:new 0 0 263.5 129.9;" xml:space="preserve">
<style type="text/css">
	.st0{opacity:0.81;}
</style>
<g>
	<path d="M56.1,54c-5.2,0-7.5,0.1-10.2,0.6v-8c3,0.5,5.5,0.6,10.8,0.6h2.9c4.7,0,7.5-0.1,10.5-0.4c-0.6,4.2-0.7,6.7-0.7,11.2v9.1
		c0,4.7,0.1,7.1,0.7,11c-6,3.5-8.9,4.9-13.5,6.2c-4.2,1.2-9.7,1.9-14.8,1.9c-9.4,0-16.9-2.4-22.7-7.4C11.4,71.9,6.9,60.5,6.9,47.1
		c0-23.9,13.5-39.1,34.7-39.1c8.8,0,16,2.5,21.3,7.4c3.3,3.1,5.1,6,7.3,11.3l-7.8,2.6c-3.6-9.7-10.2-14.3-20.9-14.3
		c-16.4,0-26.4,12.2-26.4,32.2c0,10.6,2.9,19.4,8.3,25.2c4.5,4.8,10.6,7.2,18.5,7.2c7.9,0,14.2-1.8,20.1-5.6v-20L56.1,54L56.1,54z"
		/>
	<path d="M134.6,85.1c-0.3-3-1.7-7.1-5.9-17c-5.8-13.6-9.6-17.5-17.6-17.5H92.8v23.2c0,5.1,0.2,7.7,0.8,11.2h-9.2
		c0.6-3.6,0.8-6.3,0.8-11.1V20.7c0-4.3-0.2-7.5-0.8-11.4c3.5,0.2,6.3,0.3,10.8,0.3H117c14.4,0,22.4,6.8,22.4,19.1
		c0,6.4-1.9,11.1-6,14.6c-2.9,2.6-5.4,3.8-10.7,5c4.1,1.2,6.6,3.9,10.1,10.9c2.4,4.7,4.8,9.8,7.9,16.7c1.7,3.9,3.1,6.9,4.5,9.2
		C145.1,85.1,134.6,85.1,134.6,85.1z M116.3,43.7c4.5,0,8.5-1.6,11.2-4.3c2.6-2.5,3.8-5.8,3.8-10c0-8.4-5-13-14.4-13H92.8v27.3
		H116.3z"/>
	<path d="M156.5,85.1c0.6-3.6,0.8-6.5,0.8-11.1V20.6c0-4.1-0.2-7.2-0.8-11.3c3.6,0.2,6.4,0.3,10.9,0.3h20.3
		c15.3,0,23.9,7.9,23.9,21.7c0,14.6-8.9,23-24.4,23H165v19.6c0,4.8,0.2,7.9,0.8,11.2H156.5z M187.2,47.4c10.5,0,16.5-5.7,16.5-15.8
		c0-9.9-5.8-15.2-16.5-15.2H165v31H187.2z"/>
	<path d="M230.6,9c2.6,0.4,4.5,0.5,8.2,0.5h6.3c3.4,0,5-0.1,8.2-0.5c-0.6,6.1-0.9,11.1-0.9,16.5v48.3c0,4.7,0.2,7.6,0.8,11.2h-9.4
		c0.6-3.5,0.8-6.7,0.8-11.2V16.3h-5.4c-3.2,0-5.8,0.2-8.6,0.6L230.6,9L230.6,9z"/>
</g>
<g class="st0">
	<path d="M15.1,109.4c-0.4-0.7-0.6-1.5-1.1-2.9c0.1,1,0.2,2.5,0.2,3v10c0,1.2,0,2,0.2,2.8h-2.1c0.1-0.9,0.2-1.5,0.2-2.8v-12.2
		c0-1.2,0-1.9-0.2-2.8h2.7c0.1,0.7,0.4,1.5,0.8,2.3l5.8,12.9l5.7-12.9c0.4-0.9,0.7-1.6,0.8-2.3h2.7c-0.1,0.9-0.2,1.6-0.2,2.8v12.2
		c0,1.3,0,1.9,0.2,2.8h-2.1c0.1-0.8,0.2-1.6,0.2-2.8v-10.1c0-0.7,0.1-1.9,0.2-2.9c-0.2,1-0.6,1.9-1,2.9l-4.8,10.5
		c-0.5,1.1-0.7,1.7-0.9,2.4h-1.7c-0.1-0.6-0.4-1.4-0.9-2.5L15.1,109.4z"/>
	<path d="M42.5,120.6c-0.9,0.8-1.4,1.1-2.1,1.4c-0.8,0.3-1.6,0.5-2.4,0.5c-2.6,0-4.1-1.3-4.1-3.6c0-1.9,1.2-3.2,3.3-3.8
		c1.4-0.4,2.5-0.5,5.4-0.6v-1.4c0-1.6-1-2.4-2.9-2.4c-1.3,0-2.2,0.3-2.9,1c-0.3,0.3-0.5,0.7-0.7,1.4l-1.8-0.4
		c0.4-1.1,0.7-1.6,1.3-2.1c1-0.9,2.4-1.3,4.1-1.3c3.1,0,4.7,1.3,4.7,3.8v6.6c0,1.1,0,1.6,0.2,2.6h-1.9L42.5,120.6L42.5,120.6z
		 M42.5,115.9c-2.8,0.1-4.1,0.2-5.2,0.7c-1.2,0.5-1.8,1.3-1.8,2.4c0,1.3,1,2.1,2.5,2.1c1.4,0,2.8-0.7,3.7-1.7c0.5-0.6,0.7-1.1,0.7-2
		L42.5,115.9L42.5,115.9z"/>
	<path d="M57.5,121.1c0-0.3,0-0.7,0.1-1.1c-1.1,1.7-2.6,2.5-4.7,2.5c-3.6,0-5.8-2.5-5.8-6.5c0-4,2.2-6.5,5.7-6.5
		c2.1,0,3.8,0.9,4.8,2.5l0-0.4c-0.1-0.5-0.1-0.7-0.1-1.2v-3.1c0-1.1,0-1.8-0.2-2.7h2.1c-0.1,0.9-0.2,1.6-0.2,2.6v12.4
		c0,1.2,0,1.8,0.2,2.7h-1.9V121.1z M48.9,115.9c0,1.5,0.4,2.9,1,3.6c0.7,0.9,1.8,1.4,3.1,1.4c2.7,0,4.5-2,4.5-5.1
		c0-1.5-0.5-2.9-1.3-3.7c-0.8-0.8-1.9-1.2-3.2-1.2C50.4,110.9,48.9,112.8,48.9,115.9z"/>
	<path d="M63.9,116.3c0.1,1.6,0.3,2.4,0.9,3.3c0.7,1,1.9,1.6,3.3,1.6c1.9,0,3.2-0.9,3.9-2.7l1.6,0.7c-0.4,1-0.7,1.4-1.3,1.9
		c-1.1,1.1-2.5,1.6-4.2,1.6c-3.7,0-6-2.6-6-6.6c0-4,2.3-6.6,5.8-6.6c3,0,5.2,1.9,5.7,5.1c0,0.3,0.1,1.2,0.2,1.8L63.9,116.3
		L63.9,116.3z M71.9,114.8c-0.1-1.3-0.5-2.2-1.2-2.9c-0.7-0.7-1.6-1.1-2.8-1.1c-1.4,0-2.6,0.7-3.3,2c-0.3,0.6-0.4,1-0.6,1.9H71.9z"
		/>
	<path d="M86.5,104.5v2.1h-2.3v-2.1H86.5z M86.4,109.7c-0.1,0.8-0.2,1.5-0.2,2.6v7.3c0,1.1,0,1.7,0.2,2.6h-2.1
		c0.1-1,0.2-1.7,0.2-2.6v-7.3c0-1.1,0-1.8-0.2-2.6H86.4z"/>
	<path d="M89.8,122.3c0.1-0.9,0.2-1.5,0.2-2.6v-7.3c0-1,0-1.7-0.2-2.6h1.9v1.6c0,0.3,0,0.5-0.1,1c1.1-1.9,2.6-2.8,4.7-2.8
		c1.7,0,3,0.6,3.7,1.8c0.4,0.7,0.7,1.5,0.7,2.7v5.8c0,1.2,0,1.8,0.2,2.6h-2.1c0.1-0.9,0.2-1.6,0.2-2.6v-5.4c0-2.1-1-3.2-2.8-3.2
		c-1.3,0-2.4,0.6-3.3,1.8c-0.6,0.8-0.9,1.4-1.1,2.3v4.5c0,1,0,1.7,0.2,2.6L89.8,122.3L89.8,122.3z"/>
	<path d="M114.8,122.3c-1.1,0-1.7,0-2.5,0.1c0.1-0.9,0.2-1.6,0.2-2.8v-12.3c0-1.2,0-1.9-0.2-2.8h2.2c-0.1,0.9-0.2,1.5-0.2,2.8v13.3
		h7.4c1.2,0,1.8,0,2.7-0.2v2c-0.7-0.1-1.4-0.2-2.7-0.2L114.8,122.3L114.8,122.3z"/>
	<path d="M125.6,116c0-4,2.4-6.6,6.2-6.6c3.8,0,6.2,2.6,6.2,6.6c0,4-2.4,6.6-6.2,6.6C128,122.6,125.6,120,125.6,116z M127.4,115.9
		c0,3.2,1.7,5.1,4.4,5.1c2.7,0,4.4-1.9,4.4-5.1c0-3.2-1.7-5.1-4.4-5.1C129.1,110.9,127.4,112.8,127.4,115.9z"/>
	<path d="M142,118.5c0.2,0.9,0.3,1.3,0.8,1.7c0.6,0.5,1.5,0.8,2.7,0.8c2,0,3.3-0.9,3.3-2.2c0-0.7-0.2-1.1-0.7-1.4
		c-0.6-0.3-1-0.5-2.8-0.8c-1.9-0.4-2.7-0.7-3.5-1.2c-0.8-0.6-1.3-1.4-1.3-2.5c0-0.8,0.4-1.6,1-2.3c0.8-0.8,2.1-1.2,3.6-1.2
		c1.6,0,2.8,0.4,3.7,1.1c0.6,0.5,0.9,1.1,1.2,2.1l-1.8,0.3c-0.1-0.6-0.3-0.9-0.6-1.2c-0.5-0.6-1.4-0.9-2.4-0.9
		c-1.7,0-2.9,0.9-2.9,2.1c0,0.5,0.3,1,0.8,1.3c0.5,0.3,1.1,0.5,2.6,0.8c2.3,0.5,3,0.8,3.7,1.3c0.7,0.6,1.1,1.5,1.1,2.4
		c0,2.3-2,3.8-5.2,3.8c-2.1,0-3.8-0.6-4.6-1.8c-0.3-0.5-0.5-0.9-0.7-1.8L142,118.5z"/>
	<path d="M174.2,122.3c-0.2-0.8-0.4-1.7-0.7-2.4l-1.2-3h-8.2l-1.2,3c-0.4,0.9-0.6,1.6-0.7,2.4h-2.4c0.5-0.8,0.6-1.1,1.3-2.7
		l5.2-12.9c0.4-1.1,0.6-1.6,0.7-2.2h2.4c0.1,0.4,0.2,0.7,0.8,2.2l5.2,12.9c0.6,1.4,0.9,2.1,1.2,2.7H174.2z M168.7,107.6
		c-0.1-0.2-0.1-0.2-0.5-1.5c-0.1,0.4-0.2,0.6-0.3,0.8c-0.1,0.4-0.2,0.6-0.3,0.7l-3,7.7h7L168.7,107.6z"/>
	<path d="M178.6,122.3c0.1-0.9,0.2-1.5,0.2-2.6v-7.3c0-1,0-1.7-0.2-2.6h1.9v1.6c0,0.3,0,0.5-0.1,1c1.1-1.9,2.6-2.8,4.7-2.8
		c1.7,0,3,0.6,3.7,1.8c0.4,0.7,0.7,1.5,0.7,2.7v5.8c0,1.2,0,1.8,0.2,2.6h-2.1c0.1-0.9,0.2-1.6,0.2-2.6v-5.4c0-2.1-1-3.2-2.8-3.2
		c-1.3,0-2.4,0.6-3.3,1.8c-0.6,0.8-0.9,1.4-1.1,2.3v4.5c0,1,0,1.7,0.2,2.6L178.6,122.3L178.6,122.3z"/>
	<path d="M194.5,123.9c0.3,0.4,0.5,0.6,0.7,0.8c0.9,0.8,1.9,1.1,3.1,1.1c2,0,3.5-0.9,4.1-2.6c0.2-0.7,0.3-1.5,0.4-3.5
		c-0.4,0.6-0.6,0.9-1,1.3c-0.9,0.8-2.2,1.2-3.6,1.2c-3.5,0-5.8-2.5-5.8-6.4c0-4,2.3-6.5,5.9-6.5c2,0,3.5,0.8,4.5,2.5
		c0-0.4,0-0.6,0-0.9v-1.3h1.9c-0.1,0.9-0.2,1.5-0.2,2.6v8.4c0,2.3-0.4,3.8-1.4,4.9c-1,1.1-2.7,1.8-4.9,1.8c-2.3,0-3.8-0.7-5.3-2.3
		L194.5,123.9z M198.4,120.8c2.7,0,4.4-2,4.4-5.1c0-2.9-1.7-4.8-4.3-4.8c-2.6,0-4.2,1.9-4.2,5C194.3,119,195.9,120.8,198.4,120.8z"
		/>
	<path d="M209.3,116.3c0.1,1.6,0.3,2.4,0.9,3.3c0.7,1,1.9,1.6,3.3,1.6c1.9,0,3.2-0.9,3.9-2.7l1.6,0.7c-0.4,1-0.7,1.4-1.3,1.9
		c-1.1,1.1-2.5,1.6-4.2,1.6c-3.7,0-6-2.6-6-6.6c0-4,2.3-6.6,5.8-6.6c3,0,5.2,1.9,5.7,5.1c0,0.3,0.1,1.2,0.2,1.8L209.3,116.3
		L209.3,116.3z M217.2,114.8c-0.1-1.3-0.5-2.2-1.2-2.9c-0.7-0.7-1.6-1.1-2.8-1.1c-1.4,0-2.6,0.7-3.3,2c-0.3,0.6-0.4,1-0.6,1.9H217.2
		z"/>
	<path d="M223.9,104.5c-0.1,0.8-0.2,1.5-0.2,2.6v12.5c0,1,0,1.7,0.2,2.6h-2.1c0.1-0.8,0.2-1.6,0.2-2.6v-12.5c0-1.1,0-1.8-0.2-2.6
		L223.9,104.5L223.9,104.5z"/>
	<path d="M228.4,116.3c0.1,1.6,0.3,2.4,0.9,3.3c0.7,1,1.9,1.6,3.3,1.6c1.9,0,3.2-0.9,3.9-2.7l1.6,0.7c-0.4,1-0.7,1.4-1.3,1.9
		c-1.1,1.1-2.5,1.6-4.2,1.6c-3.7,0-6-2.6-6-6.6c0-4,2.3-6.6,5.8-6.6c3,0,5.2,1.9,5.7,5.1c0,0.3,0.1,1.2,0.2,1.8L228.4,116.3
		L228.4,116.3z M236.4,114.8c-0.1-1.3-0.5-2.2-1.2-2.9c-0.7-0.7-1.6-1.1-2.8-1.1c-1.4,0-2.6,0.7-3.3,2c-0.3,0.6-0.4,1-0.6,1.9H236.4
		z"/>
	<path d="M242.2,118.5c0.2,0.9,0.4,1.3,0.8,1.7c0.6,0.5,1.5,0.8,2.7,0.8c2,0,3.3-0.9,3.3-2.2c0-0.7-0.2-1.1-0.7-1.4
		c-0.6-0.3-1-0.5-2.8-0.8c-1.9-0.4-2.7-0.7-3.5-1.2c-0.8-0.6-1.3-1.4-1.3-2.5c0-0.8,0.3-1.6,1-2.3c0.8-0.8,2.1-1.2,3.6-1.2
		c1.6,0,2.8,0.4,3.7,1.1c0.6,0.5,0.9,1.1,1.2,2.1l-1.8,0.3c-0.1-0.6-0.3-0.9-0.6-1.2c-0.5-0.6-1.4-0.9-2.4-0.9
		c-1.7,0-2.9,0.9-2.9,2.1c0,0.5,0.3,1,0.8,1.3c0.5,0.3,1.1,0.5,2.6,0.8c2.3,0.5,3,0.8,3.7,1.3c0.7,0.6,1.1,1.5,1.1,2.4
		c0,2.3-2,3.8-5.2,3.8c-2.1,0-3.8-0.6-4.6-1.8c-0.4-0.5-0.5-0.9-0.7-1.8L242.2,118.5z"/>
	<path d="M255.8,120v2.3h-2.3V120H255.8z"/>
</g>
<text transform="matrix(1 0 0 1 216.2949 221.8936)" style="font-family:'HiraKakuPro-W3-83pv-RKSJ-H'; font-size:9px;"> </text>
</svg>
